<svg width="512" height="572" viewBox="0 0 512 572" fill="none" xmlns="http://www.w3.org/2000/svg">
<path d="M94.6289 203.239C93.2062 207.559 92.4316 212.069 92.3369 216.623L92.3271 217.73V353.947C92.3152 361.929 94.4 369.774 98.373 376.696C102.346 383.619 108.069 389.377 114.967 393.393L114.973 393.396L114.979 393.399L232.922 461.415C238.487 464.625 244.657 466.613 251.022 467.263V568.29C242.613 567.618 234.438 565.111 227.079 560.927L32.5645 448.607L32.5615 448.606L31.7217 448.112C14.1858 437.62 3.5 418.815 3.5 398.518V173.84C3.67744 167.44 4.9142 161.123 7.15234 155.144L94.6289 203.239ZM148.852 232.979C148.244 235.131 147.904 237.354 147.842 239.597L147.831 240.266V332.125C147.868 337.14 149.222 342.057 151.757 346.384C154.292 350.711 157.92 354.296 162.276 356.779V356.778L241.785 402.716L241.838 402.747L241.892 402.775C244.743 404.293 247.823 405.311 250.999 405.798V450.542C247.6 449.992 244.297 448.905 241.306 447.178H241.305L123.34 379.02H123.339C118.937 376.478 115.283 372.821 112.745 368.417C110.287 364.151 108.96 359.329 108.887 354.411L108.884 353.935V217.731C108.884 215.603 109.12 213.485 109.584 211.416L148.852 232.979ZM255.807 120.637C260.865 120.607 265.843 121.908 270.24 124.409V124.41L388.191 192.559V192.56C390.034 193.637 391.746 194.914 393.3 196.364L354.279 218.816C352.926 217.579 351.459 216.471 349.893 215.51L349.853 215.486L349.813 215.463L270.311 169.516L270.305 169.512L269.896 169.281C265.656 166.934 260.887 165.701 256.036 165.701C251.185 165.701 246.416 166.934 242.176 169.281L241.768 169.512L241.763 169.515L162.165 215.462L162.154 215.469C159.762 216.861 157.591 218.591 155.704 220.602L115.961 198.764C118.05 196.299 120.546 194.199 123.353 192.562L123.352 192.561L241.306 124.506C245.564 122.049 250.375 120.72 255.285 120.641L255.761 120.638H255.796L255.807 120.637ZM227.131 11.3027C236.416 5.92352 247.005 3.23553 257.714 3.52246L257.788 3.59668L259.132 3.66699C267.958 4.1245 276.559 6.59564 284.276 10.8867L285.021 11.3076L479.459 123.624H479.46C485.595 127.164 491.019 131.795 495.471 137.276L408.032 187.785C404.966 184.289 401.379 181.282 397.392 178.875L396.409 178.299L278.437 110.15L278.435 110.149L277.784 109.781C271.036 106.035 263.441 104.065 255.714 104.065C247.987 104.065 240.392 106.035 233.644 109.781L232.993 110.149L232.991 110.15L115.001 178.31L114.988 178.316L114.977 178.323C109.595 181.49 104.931 185.723 101.267 190.75L12.957 142.321C17.9069 134.643 24.6122 128.23 32.54 123.624L227.126 11.3057L227.131 11.3027ZM364.098 240.093L364.095 240.029C363.978 236.802 363.316 233.626 362.147 230.633L400.977 208.197C401.976 210.994 402.542 213.932 402.646 216.911L402.663 217.752V353.935C402.671 359.017 401.34 364.013 398.802 368.417C396.343 372.683 392.837 376.248 388.618 378.777L388.208 379.02H388.207L270.264 447.154L270.257 447.158C268.622 448.108 266.859 448.871 265.029 449.461V404.93C266.831 404.374 268.576 403.64 270.235 402.734L270.274 402.714L270.312 402.691L349.803 356.702L349.804 356.703C358.653 351.627 364.098 342.322 364.098 332.052V240.093ZM419.22 217.727C419.212 211.548 417.942 205.448 415.502 199.797L502.922 149.396C506.42 156.78 508.322 164.829 508.488 173.017L508.5 173.921V398.494C508.491 408.654 505.811 418.632 500.727 427.428C495.801 435.949 488.787 443.071 480.353 448.125L479.531 448.607H479.53L285.067 560.896C278.842 564.323 272.048 566.569 265.029 567.533V466.566C269.753 465.619 274.304 463.929 278.507 461.548L278.52 461.54L278.532 461.533L396.499 393.374L396.505 393.371C410.65 385.163 419.22 370.112 419.22 353.929V217.727Z" fill="black" stroke="white" stroke-width="7"/>
</svg>
