<svg width="512" height="512" viewBox="0 0 512 512" fill="none" xmlns="http://www.w3.org/2000/svg">
<path d="M128.64 191.021C127.522 194.417 126.913 197.962 126.838 201.542L126.83 202.412V309.497C126.821 315.772 128.46 321.94 131.583 327.381C134.707 332.824 139.206 337.35 144.629 340.507L144.633 340.51L144.638 340.512L237.357 393.982C241.732 396.505 246.583 398.068 251.587 398.579V478C244.976 477.472 238.549 475.501 232.764 472.212L79.8487 383.913L79.8464 383.912L79.1862 383.524C65.4005 375.276 57 360.492 57 344.536V167.909C57.1395 162.878 58.1118 157.912 59.8712 153.211L128.64 191.021ZM171.267 214.4C170.789 216.092 170.522 217.84 170.473 219.603L170.464 220.129V292.342C170.493 296.285 171.558 300.15 173.551 303.552C175.543 306.953 178.396 309.772 181.82 311.724L244.325 347.836L244.367 347.861L244.409 347.883C246.65 349.076 249.072 349.876 251.569 350.259V385.434C248.896 385.002 246.3 384.147 243.948 382.79H243.948L151.211 329.208C147.75 327.21 144.877 324.335 142.882 320.873C140.949 317.519 139.906 313.728 139.849 309.862L139.846 309.488V202.413C139.846 200.74 140.032 199.075 140.397 197.449L171.267 214.4ZM255.348 126.084C259.325 126.061 263.238 127.083 266.695 129.05V129.05L359.42 182.625C360.869 183.471 362.215 184.476 363.437 185.616L332.761 203.266C331.697 202.294 330.544 201.423 329.313 200.667L329.281 200.648L329.25 200.63L266.75 164.51L266.746 164.507L266.424 164.325C263.091 162.48 259.342 161.511 255.528 161.511C251.715 161.511 247.966 162.48 244.632 164.325L244.312 164.507L244.308 164.509L181.733 200.629L181.724 200.635C179.844 201.729 178.137 203.089 176.653 204.67L145.41 187.503C147.052 185.565 149.014 183.914 151.221 182.627L151.22 182.626L243.948 129.126C247.296 127.194 251.078 126.149 254.938 126.087L255.312 126.085H255.34L255.348 126.084ZM232.805 40.1327C240.104 35.9039 248.429 33.7908 256.847 34.0163L256.906 34.0747L257.962 34.13C264.901 34.4896 271.662 36.4323 277.729 39.8056L278.315 40.1365L431.17 128.432C435.993 131.215 440.258 134.856 443.757 139.165L375.018 178.872C372.608 176.123 369.788 173.759 366.654 171.867L365.881 171.414L273.139 117.84L273.137 117.839L272.625 117.55C267.32 114.605 261.35 113.056 255.275 113.056C249.201 113.056 243.23 114.605 237.925 117.55L237.413 117.839L237.412 117.84L144.655 171.423L144.645 171.428L144.636 171.433C140.405 173.923 136.739 177.251 133.858 181.202L64.4345 143.131C68.3258 137.095 73.5971 132.053 79.8295 128.432L232.801 40.135L232.805 40.1327ZM340.48 219.993L340.478 219.942C340.386 217.406 339.865 214.909 338.946 212.556L369.472 194.918C370.257 197.117 370.702 199.427 370.784 201.769L370.797 202.43V309.488C370.804 313.483 369.757 317.411 367.762 320.873C365.829 324.226 363.073 327.029 359.756 329.017L359.434 329.208H359.433L266.713 382.771L266.708 382.774C265.423 383.521 264.037 384.12 262.598 384.584V349.577C264.015 349.14 265.386 348.563 266.691 347.851L266.721 347.835L266.751 347.817L329.242 311.663L329.243 311.664C336.199 307.674 340.48 300.359 340.48 292.285V219.993ZM383.814 202.41C383.807 197.553 382.809 192.757 380.891 188.315L449.615 148.693C452.365 154.497 453.86 160.825 453.991 167.262L454 167.973V344.517C453.993 352.504 451.886 360.349 447.889 367.263C444.017 373.962 438.503 379.561 431.873 383.534L431.226 383.913H431.226L278.351 472.187C273.457 474.881 268.116 476.647 262.598 477.405V398.031C266.312 397.287 269.889 395.958 273.194 394.086L273.204 394.08L273.213 394.075L365.952 340.492L365.956 340.49C377.076 334.037 383.814 322.205 383.814 309.483V202.41Z"
      fill="black"
      stroke="white"
      stroke-width="7"
/>
</svg>
